<?xml version="1.0" standalone="no"?>
<!DOCTYPE svg PUBLIC "-//W3C//DTD SVG 20010904//EN"
 "http://www.w3.org/TR/2001/REC-SVG-20010904/DTD/svg10.dtd">
<svg version="1.0" xmlns="http://www.w3.org/2000/svg"
 width="684.000000pt" height="684.000000pt" viewBox="0 0 684.000000 684.000000"
 preserveAspectRatio="xMidYMid meet">
<metadata>
Created by potrace 1.11, written by Peter Selinger 2001-2013
</metadata>
<g transform="translate(0.000000,684.000000) scale(0.100000,-0.100000)"
fill="#000000" stroke="none">
<path d="M0 3420 l0 -3420 3420 0 3420 0 0 3420 0 3420 -3420 0 -3420 0 0
-3420z m1750 3269 c170 -27 454 -243 627 -476 31 -42 90 -114 131 -160 85 -96
319 -295 342 -291 8 2 17 17 20 33 l5 30 25 -32 24 -33 1573 0 1573 0 0 -70 0
-69 -157 -3 -156 -3 -35 -95 c-154 -423 -243 -716 -327 -1080 -23 -102 -70
-291 -103 -420 -33 -129 -68 -286 -78 -348 -23 -142 -35 -127 -42 52 -15 402
104 1065 272 1509 14 37 24 67 22 67 -2 0 -41 -17 -87 -39 -139 -64 -320 -117
-519 -151 -102 -18 -191 -35 -198 -39 -9 -5 -1 -16 27 -34 50 -33 133 -133
168 -200 49 -98 63 -184 42 -261 -15 -56 -87 -128 -162 -162 -58 -27 -69 -29
-182 -27 -139 1 -286 28 -372 68 -99 45 -192 106 -233 153 -68 76 -89 195 -50
280 22 48 111 147 152 168 19 10 28 22 28 40 0 107 103 156 242 114 l73 -21
135 25 c74 13 155 28 180 31 100 15 392 76 476 100 118 34 261 103 313 150 36
32 81 99 81 120 0 3 -594 5 -1320 5 l-1320 0 0 -83 c0 -46 -9 -148 -20 -227
-11 -79 -18 -145 -16 -147 2 -2 19 5 37 17 47 28 153 60 203 60 118 0 324 -99
392 -187 104 -137 112 -445 15 -657 -85 -187 -250 -375 -445 -504 -111 -74
-205 -127 -212 -119 -3 2 8 12 23 22 64 41 184 150 253 230 181 208 255 365
291 614 31 219 -32 367 -189 439 -46 21 -65 24 -127 20 -96 -6 -192 -50 -232
-105 -65 -91 -113 -205 -133 -313 -10 -58 -52 -226 -93 -375 -41 -148 -80
-310 -86 -360 -7 -49 -19 -119 -28 -154 l-16 -65 -13 37 c-12 34 -74 457 -89
602 -3 33 -8 77 -12 98 l-5 39 -83 -81 c-124 -121 -215 -154 -360 -131 -233
37 -358 204 -359 480 0 126 18 199 79 326 77 160 183 275 305 333 81 38 175
37 249 -4 68 -37 119 -95 169 -193 38 -74 86 -222 111 -344 l12 -57 31 37 c18
20 57 64 89 97 31 33 60 69 63 80 7 25 96 545 96 563 0 9 -166 12 -799 12
l-799 0 -7 -67 c-3 -38 -15 -131 -25 -208 -35 -254 -49 -417 -60 -680 -18
-415 -82 -730 -212 -1035 -39 -91 -73 -167 -75 -170 -3 -3 -3 15 1 40 3 25 10
117 15 205 6 92 18 199 30 253 48 212 80 448 86 629 3 98 12 228 20 288 8 61
22 200 31 310 17 201 32 285 72 383 l22 52 -190 0 -190 0 0 70 0 70 93 0 c87
1 90 2 65 16 -54 29 -108 132 -123 234 -9 60 9 193 36 266 18 49 37 74 113
149 75 73 112 100 192 141 208 108 432 153 614 123z m523 -2918 c43 -10 183
-88 235 -131 68 -56 226 -249 319 -390 53 -80 125 -207 161 -282 l65 -138
1274 0 1273 0 0 -70 0 -70 -134 0 -134 0 -7 -52 c-15 -118 -71 -397 -165 -823
-145 -664 -174 -822 -186 -1015 l-6 -115 -20 49 c-10 27 -29 101 -41 165 -19
103 -21 146 -19 390 1 216 -2 289 -14 345 -8 39 -24 110 -34 158 -30 142 -83
227 -133 214 -29 -7 -146 -128 -210 -218 -71 -99 -127 -218 -143 -306 -51
-269 -86 -438 -93 -445 -5 -5 -23 -2 -40 7 -42 22 -52 62 -101 390 -22 148
-47 295 -55 327 -40 155 -138 395 -183 449 l-21 25 -58 -60 c-119 -123 -230
-323 -273 -490 -82 -322 98 -833 407 -1156 148 -153 292 -253 477 -330 106
-45 97 -50 -21 -14 -228 70 -447 209 -633 401 -368 381 -515 817 -398 1177 56
174 170 361 301 495 77 78 134 112 186 112 42 0 112 -41 157 -93 70 -81 154
-284 214 -517 12 -47 24 -92 27 -100 2 -8 27 31 57 90 77 155 158 273 255 372
80 82 89 88 127 88 22 0 62 -7 88 -16 88 -30 174 -163 206 -319 7 -33 14 -55
16 -50 2 6 19 109 39 230 36 222 101 585 111 618 5 16 -46 17 -975 17 l-980 0
-20 -54 c-62 -165 -178 -569 -231 -804 -63 -278 -132 -737 -148 -979 -8 -114
-2 -298 12 -375 12 -65 -14 12 -39 117 -55 228 -71 545 -40 810 15 125 116
651 136 703 5 13 8 26 7 27 -2 2 -77 -21 -168 -50 -91 -30 -191 -62 -224 -72
-59 -18 -59 -18 -80 -78 -48 -133 -169 -329 -289 -465 -158 -182 -310 -271
-462 -273 -123 -1 -218 64 -278 191 -26 55 -32 83 -35 150 -4 74 -1 88 24 139
33 69 137 174 218 223 84 49 255 103 457 145 278 57 265 49 275 162 8 80 -8
168 -41 233 -40 77 -152 172 -267 225 l-53 25 -402 0 -403 0 0 70 0 70 943 1
c518 0 933 4 921 9 -36 14 -83 79 -134 183 -67 137 -117 200 -322 408 -141
143 -185 181 -237 207 -74 37 -109 39 -168 13 -55 -25 -77 -67 -78 -148 0 -97
48 -144 162 -159 49 -6 54 -5 83 24 27 28 30 36 30 95 0 51 -6 76 -28 121 -16
31 -25 56 -21 56 24 0 80 -67 100 -118 31 -83 30 -149 -4 -201 -65 -99 -164
-120 -283 -61 -140 69 -197 211 -143 356 25 66 89 135 141 151 42 14 121 15
171 4z"/>
<path d="M1400 6527 c-155 -52 -338 -203 -408 -334 -30 -56 -33 -71 -35 -157
-2 -90 -1 -96 28 -137 41 -58 142 -121 204 -127 25 -2 395 -5 821 -8 l775 -4
-95 50 c-139 73 -212 132 -440 355 -304 298 -362 342 -499 371 -105 22 -273
18 -351 -9z"/>
<path d="M2039 5272 c-101 -64 -201 -219 -239 -368 -26 -99 -27 -260 -3 -333
30 -94 112 -165 205 -177 24 -3 76 1 117 10 82 17 184 74 270 152 51 46 51 46
51 107 0 70 -30 245 -60 355 -23 84 -67 174 -106 222 -57 67 -158 81 -235 32z"/>
<path d="M4124 5166 c-21 -21 -34 -44 -34 -59 l0 -26 53 23 c28 13 77 31 107
41 30 10 59 20 64 23 17 9 -56 30 -107 31 -43 1 -53 -3 -83 -33z"/>
<path d="M4380 5014 c-102 -34 -223 -100 -276 -150 -36 -33 -44 -47 -44 -75 0
-46 9 -56 119 -129 157 -105 288 -149 401 -135 139 17 198 98 165 228 -24 93
-74 175 -145 235 -74 62 -103 66 -220 26z"/>
<path d="M2632 4670 l-33 -39 3 -123 3 -123 32 160 c17 88 30 161 30 162 -1 1
-17 -16 -35 -37z"/>
<path d="M2277 2632 c134 -100 177 -193 171 -377 -3 -102 -2 -106 17 -101 11
3 114 31 229 63 200 55 209 58 222 88 14 29 104 356 104 375 0 6 -146 10 -411
10 l-411 0 79 -58z"/>
<path d="M2050 1915 c-273 -76 -432 -145 -489 -211 -101 -115 -34 -317 114
-341 27 -4 50 2 103 27 53 27 95 61 203 169 135 134 138 137 198 262 34 69 61
129 61 132 0 13 -35 6 -190 -38z"/>
</g>
</svg>
